HIERARCHY
ROOT Hips
{
	OFFSET 0.719733 86.094200 2.458922
	CHANNELS 6 Xposition Yposition Zposition Zrotation Yrotation Xrotation 
	JOINT Spine
	{
		OFFSET 0.000000 8.814246 -2.080107
		CHANNELS 3 Zrotation Yrotation Xrotation
		JOINT Spine1
		{
			OFFSET -0.000000 8.844141 -0.000000
			CHANNELS 3 Zrotation Yrotation Xrotation
			JOINT Spine2
			{
				OFFSET -0.000000 11.682268 0.000000
				CHANNELS 3 Zrotation Yrotation Xrotation
				JOINT Spine3
				{
					OFFSET 0.000000 11.746700 0.000000
					CHANNELS 3 Zrotation Yrotation Xrotation
					JOINT Neck
					{
						OFFSET 0.000000 17.658264 0.000000
						CHANNELS 3 Zrotation Yrotation Xrotation
						JOINT Neck1
						{
							OFFSET -0.000000 5.101515 -0.000000
							CHANNELS 3 Zrotation Yrotation Xrotation
							JOINT Head
							{
								OFFSET 0.000000 5.101515 -0.000000
								CHANNELS 3 Zrotation Yrotation Xrotation
								JOINT HeadEnd
								{
									OFFSET 0.000000 11.655085 0.000000
									CHANNELS 3 Zrotation Yrotation Xrotation
									End Site
									{
										OFFSET 0.000000 0.000000 0.000000
									}
								}
							}
						}
					}
					JOINT RightShoulder
					{
						OFFSET -2.625389 11.175210 -0.000000
						CHANNELS 3 Zrotation Yrotation Xrotation
						JOINT RightArm
						{
							OFFSET 0.000000 10.434715 -0.000000
							CHANNELS 3 Zrotation Yrotation Xrotation
							JOINT RightForeArm
							{
								OFFSET -0.000000 29.628420 -0.000000
								CHANNELS 3 Zrotation Yrotation Xrotation
								JOINT RightHand
								{
									OFFSET 0.000000 22.857611 0.000000
									CHANNELS 3 Zrotation Yrotation Xrotation
									JOINT RightHandThumb1
									{
										OFFSET -2.867323 3.959563 2.944291
										CHANNELS 3 Zrotation Yrotation Xrotation
										JOINT RightHandThumb2
										{
											OFFSET -0.000000 3.350399 0.000000
											CHANNELS 3 Zrotation Yrotation Xrotation
											JOINT RightHandThumb3
											{
												OFFSET -0.000000 3.756509 -0.000000
												CHANNELS 3 Zrotation Yrotation Xrotation
												JOINT RightHandThumb4
												{
													OFFSET -0.000000 3.147345 -0.000000
													CHANNELS 3 Zrotation Yrotation Xrotation
													End Site
													{
														OFFSET 0.000000 0.000000 0.000000
													}
												}
											}
										}
									}
									JOINT RightHandIndex1
									{
										OFFSET -0.086752 10.030893 2.345280
										CHANNELS 3 Zrotation Yrotation Xrotation
										JOINT RightHandIndex2
										{
											OFFSET -0.000000 4.061090 -0.000000
											CHANNELS 3 Zrotation Yrotation Xrotation
											JOINT RightHandIndex3
											{
												OFFSET 0.000000 3.248873 0.000000
												CHANNELS 3 Zrotation Yrotation Xrotation
												JOINT RightHandIndex4
												{
													OFFSET -0.000000 2.639709 -0.000000
													CHANNELS 3 Zrotation Yrotation Xrotation
													End Site
													{
														OFFSET 0.000000 0.000000 0.000000
													}
												}
											}
										}
									}
									JOINT RightHandMiddle1
									{
										OFFSET 0.104102 9.502952 0.006768
										CHANNELS 3 Zrotation Yrotation Xrotation
										JOINT RightHandMiddle2
										{
											OFFSET -0.000000 4.568727 -0.000000
											CHANNELS 3 Zrotation Yrotation Xrotation
											JOINT RightHandMiddle3
											{
												OFFSET -0.000000 3.654981 0.000000
												CHANNELS 3 Zrotation Yrotation Xrotation
												JOINT RightHandMiddle4
												{
													OFFSET 0.000000 2.741236 0.000000
													CHANNELS 3 Zrotation Yrotation Xrotation
													End Site
													{
														OFFSET 0.000000 0.000000 0.000000
													}
												}
											}
										}
									}
									JOINT RightHandRing1
									{
										OFFSET 0.086752 8.921708 -2.267442
										CHANNELS 3 Zrotation Yrotation Xrotation
										JOINT RightHandRing2
										{
											OFFSET -0.000000 4.061090 -0.000000
											CHANNELS 3 Zrotation Yrotation Xrotation
											JOINT RightHandRing3
											{
												OFFSET -0.000000 3.654981 -0.000000
												CHANNELS 3 Zrotation Yrotation Xrotation
												JOINT RightHandRing4
												{
													OFFSET 0.000000 2.741236 0.000000
													CHANNELS 3 Zrotation Yrotation Xrotation
													End Site
													{
														OFFSET 0.000000 0.000000 0.000000
													}
												}
											}
										}
									}
									JOINT RightHandPinky1
									{
										OFFSET -0.173504 7.976997 -4.467199
										CHANNELS 3 Zrotation Yrotation Xrotation
										JOINT RightHandPinky2
										{
											OFFSET -0.000000 3.350399 -0.000000
											CHANNELS 3 Zrotation Yrotation Xrotation
											JOINT RightHandPinky3
											{
												OFFSET -0.000000 2.842763 -0.000000
												CHANNELS 3 Zrotation Yrotation Xrotation
												JOINT RightHandPinky4
												{
													OFFSET 0.000000 2.639709 0.000000
													CHANNELS 3 Zrotation Yrotation Xrotation
													End Site
													{
														OFFSET 0.000000 0.000000 0.000000
													}
												}
											}
										}
									}
									JOINT RightForeArmEnd
									{
										OFFSET 0.000000 0.000000 0.000000
										CHANNELS 3 Zrotation Yrotation Xrotation
										End Site
										{
											OFFSET 0.000000 0.000000 0.000000
										}
									}
								}
								JOINT RightArmEnd
								{
									OFFSET 0.000000 0.000000 0.000000
									CHANNELS 3 Zrotation Yrotation Xrotation
									End Site
									{
										OFFSET 0.000000 0.000000 0.000000
									}
								}
							}
						}
					}
					JOINT LeftShoulder
					{
						OFFSET 2.625389 11.175210 -0.000000
						CHANNELS 3 Zrotation Yrotation Xrotation
						JOINT LeftArm
						{
							OFFSET 0.000000 10.813635 -0.000000
							CHANNELS 3 Zrotation Yrotation Xrotation
							JOINT LeftForeArm
							{
								OFFSET -0.000000 28.724781 0.000000
								CHANNELS 3 Zrotation Yrotation Xrotation
								JOINT LeftHand
								{
									OFFSET 0.644384 25.716167 -0.328871
									CHANNELS 3 Zrotation Yrotation Xrotation
									JOINT LeftHandThumb1
									{
										OFFSET 2.867323 3.959563 2.944291
										CHANNELS 3 Zrotation Yrotation Xrotation
										JOINT LeftHandThumb2
										{
											OFFSET 0.000000 3.350399 -0.000000
											CHANNELS 3 Zrotation Yrotation Xrotation
											JOINT LeftHandThumb3
											{
												OFFSET -0.000000 3.756509 -0.000000
												CHANNELS 3 Zrotation Yrotation Xrotation
												JOINT LeftHandThumb4
												{
													OFFSET -0.000000 3.100000 0.000000
													CHANNELS 3 Zrotation Yrotation Xrotation
													End Site
													{
														OFFSET 0.000000 0.000000 0.000000
													}
												}
											}
										}
									}
									JOINT LeftHandIndex1
									{
										OFFSET 0.086752 10.030893 2.345280
										CHANNELS 3 Zrotation Yrotation Xrotation
										JOINT LeftHandIndex2
										{
											OFFSET -0.000000 4.061090 0.000000
											CHANNELS 3 Zrotation Yrotation Xrotation
											JOINT LeftHandIndex3
											{
												OFFSET -0.000000 3.248873 0.000000
												CHANNELS 3 Zrotation Yrotation Xrotation
												JOINT LeftHandIndex4
												{
													OFFSET 0.000000 2.639709 -0.000000
													CHANNELS 3 Zrotation Yrotation Xrotation
													End Site
													{
														OFFSET 0.000000 0.000000 0.000000
													}
												}
											}
										}
									}
									JOINT LeftHandMiddle1
									{
										OFFSET -0.104102 9.502952 0.006768
										CHANNELS 3 Zrotation Yrotation Xrotation
										JOINT LeftHandMiddle2
										{
											OFFSET -0.000000 4.568727 0.000000
											CHANNELS 3 Zrotation Yrotation Xrotation
											JOINT LeftHandMiddle3
											{
												OFFSET 0.000000 3.654981 0.000000
												CHANNELS 3 Zrotation Yrotation Xrotation
												JOINT LeftHandMiddle4
												{
													OFFSET 0.000000 2.741236 -0.000000
													CHANNELS 3 Zrotation Yrotation Xrotation
													End Site
													{
														OFFSET 0.000000 0.000000 0.000000
													}
												}
											}
										}
									}
									JOINT LeftHandRing1
									{
										OFFSET -0.086752 8.921708 -2.267442
										CHANNELS 3 Zrotation Yrotation Xrotation
										JOINT LeftHandRing2
										{
											OFFSET -0.000000 4.061090 0.000000
											CHANNELS 3 Zrotation Yrotation Xrotation
											JOINT LeftHandRing3
											{
												OFFSET -0.000000 3.654981 0.000000
												CHANNELS 3 Zrotation Yrotation Xrotation
												JOINT LeftHandRing4
												{
													OFFSET -0.000000 2.741236 0.000000
													CHANNELS 3 Zrotation Yrotation Xrotation
													End Site
													{
														OFFSET 0.000000 0.000000 0.000000
													}
												}
											}
										}
									}
									JOINT LeftHandPinky1
									{
										OFFSET 0.173504 7.976997 -4.467199
										CHANNELS 3 Zrotation Yrotation Xrotation
										JOINT LeftHandPinky2
										{
											OFFSET 0.000000 3.350399 -0.000000
											CHANNELS 3 Zrotation Yrotation Xrotation
											JOINT LeftHandPinky3
											{
												OFFSET -0.000000 2.842763 0.000000
												CHANNELS 3 Zrotation Yrotation Xrotation
												JOINT LeftHandPinky4
												{
													OFFSET -0.000000 2.639709 0.000000
													CHANNELS 3 Zrotation Yrotation Xrotation
													End Site
													{
														OFFSET 0.000000 0.000000 0.000000
													}
												}
											}
										}
									}
									JOINT LeftForeArmEnd
									{
										OFFSET 0.000000 0.000000 0.000000
										CHANNELS 3 Zrotation Yrotation Xrotation
										End Site
										{
											OFFSET 0.000000 0.000000 0.000000
										}
									}
								}
								JOINT LeftArmEnd
								{
									OFFSET 0.000000 0.000000 0.000000
									CHANNELS 3 Zrotation Yrotation Xrotation
									End Site
									{
										OFFSET 0.000000 0.000000 0.000000
									}
								}
							}
						}
					}
				}
			}
		}
	}
	JOINT RightUpLeg
	{
		OFFSET -11.289943 -0.000000 -0.000000
		CHANNELS 3 Zrotation Yrotation Xrotation
		JOINT RightLeg
		{
			OFFSET -0.000000 -38.200325 -0.000000
			CHANNELS 3 Zrotation Yrotation Xrotation
			JOINT RightFoot
			{
				OFFSET -0.000000 -39.900856 -0.000000
				CHANNELS 3 Zrotation Yrotation Xrotation
				JOINT RightToeBase
				{
					OFFSET 0.000000 0.000000 15.261641
					CHANNELS 3 Zrotation Yrotation Xrotation
					JOINT RightToeBaseEnd
					{
						OFFSET 0.000000 0.000000 7.370709
						CHANNELS 3 Zrotation Yrotation Xrotation
						End Site
						{
							OFFSET 0.000000 0.000000 0.000000
						}
					}
				}
				JOINT RightLegEnd
				{
					OFFSET 0.000000 0.000000 0.000000
					CHANNELS 3 Zrotation Yrotation Xrotation
					End Site
					{
						OFFSET 0.000000 0.000000 0.000000
					}
				}
			}
			JOINT RightUpLegEnd
			{
				OFFSET 0.000000 0.000000 0.000000
				CHANNELS 3 Zrotation Yrotation Xrotation
				End Site
				{
					OFFSET 0.000000 0.000000 0.000000
				}
			}
		}
	}
	JOINT LeftUpLeg
	{
		OFFSET 11.315661 0.000000 -0.000000
		CHANNELS 3 Zrotation Yrotation Xrotation
		JOINT LeftLeg
		{
			OFFSET -0.000000 -38.200325 -0.000000
			CHANNELS 3 Zrotation Yrotation Xrotation
			JOINT LeftFoot
			{
				OFFSET -0.000000 -39.900856 0.000000
				CHANNELS 3 Zrotation Yrotation Xrotation
				JOINT LeftToeBase
				{
					OFFSET -0.000000 0.000000 15.261641
					CHANNELS 3 Zrotation Yrotation Xrotation
					JOINT LeftToeBaseEnd
					{
						OFFSET -0.000000 -0.000000 7.539996
						CHANNELS 3 Zrotation Yrotation Xrotation
						End Site
						{
							OFFSET 0.000000 0.000000 0.000000
						}
					}
				}
				JOINT LeftLegEnd
				{
					OFFSET 0.000000 0.000000 0.000000
					CHANNELS 3 Zrotation Yrotation Xrotation
					End Site
					{
						OFFSET 0.000000 0.000000 0.000000
					}
				}
			}
			JOINT LeftUpLegEnd
			{
				OFFSET 0.000000 0.000000 0.000000
				CHANNELS 3 Zrotation Yrotation Xrotation
				End Site
				{
					OFFSET 0.000000 0.000000 0.000000
				}
			}
		}
	}
}
MOTION
Frames: 4
Frame Time: 0.016667
0.719733 86.094200 2.458922 -0.735579 -0.052938 -4.116149 1.651892 -0.120676 2.788357 2.423558 -0.829887 3.553385 -1.868887 -0.231467 4.409896 -1.732635 -0.248273 0.370718 5.259263 1.301523 4.699206 -4.159396 0.623770 -10.824859 -0.415570 3.635005 -24.499113 0.000000 0.000000 0.000000 92.509743 -0.224429 4.581046 65.918732 -30.443583 -0.983146 0.805977 19.701910 38.254753 1.786473 8.532803 -14.816396 16.637400 -2.084624 37.370117 0.000000 0.000000 -40.320000 0.000000 0.000000 -28.000000 0.000000 0.000000 0.000000 43.910862 -0.000000 -9.437275 30.737598 0.000000 0.000000 30.737598 0.000000 0.000000 0.000000 0.000000 0.000000 44.860271 0.000001 -9.056112 31.402185 0.000000 0.000000 31.402185 0.000000 0.000000 0.000000 0.000000 0.000000 49.274651 0.000000 -5.376885 34.492256 0.000000 0.000000 34.492256 0.000000 0.000000 0.000000 0.000000 0.000000 51.126926 -0.000000 -1.271911 35.788849 0.000000 0.000000 35.788849 0.000000 0.000000 0.000000 0.000000 0.000000 0.000000 0.000000 0.000000 0.000000 0.000000 0.000000 -90.234245 0.031864 4.239579 -70.189209 26.321510 -12.779324 -1.047114 -8.407261 47.975254 17.575195 -13.561988 -18.344469 -18.137814 2.066984 36.797237 0.000000 0.000000 -43.919994 0.000000 0.000000 -30.500000 0.000000 0.000000 0.000000 -53.989975 0.000002 -18.881573 -37.792984 0.000000 0.000000 -37.792984 0.000000 0.000000 0.000000 0.000000 0.000000 -55.532696 -0.000001 -15.713613 -38.872894 0.000000 0.000000 -38.872894 0.000000 0.000000 0.000000 0.000000 0.000000 -62.636894 0.000000 -7.775413 -43.845829 0.000000 0.000000 -43.845829 0.000000 0.000000 0.000000 0.000000 0.000000 -66.305374 -0.000000 1.277068 -46.413776 0.000000 0.000000 -46.413776 0.000000 0.000000 0.000000 0.000000 0.000000 0.000000 0.000000 0.000000 0.000000 0.000000 0.000000 4.959793 4.560685 -2.418325 -0.238899 -0.485850 26.184069 -7.255984 -12.182077 11.049461 0.112558 -1.198749 -30.044567 0.000000 0.000000 0.000000 0.000000 0.000000 0.000000 0.000000 0.000000 0.000000 6.064538 -5.040062 -7.388041 0.393936 0.766912 27.090130 -0.345757 2.075258 11.910602 0.155961 1.036632 -32.436184 0.000000 0.000000 0.000000 0.000000 0.000000 0.000000 0.000000 0.000000 0.000000 
0.379375 85.827950 2.361326 -1.790192 -0.824585 -7.464098 2.190550 -0.305303 5.496361 3.687529 -1.101506 5.799174 -1.921674 0.695672 3.438932 -0.913168 -0.172926 -0.175429 3.769063 3.419960 0.800732 -3.073744 2.311789 -10.821739 -0.903323 2.650242 -20.603720 0.000000 0.000000 0.000000 93.212822 0.112819 5.294969 64.316040 -29.695889 1.347160 1.513605 20.020407 35.421497 1.095514 9.894966 -13.627757 15.917497 -2.011153 37.779236 0.000013 0.000035 -38.597820 0.000012 0.000038 -26.723383 0.000015 -0.000006 -0.000043 43.191750 -0.111458 -8.901389 30.063396 -0.073097 0.648151 30.126272 -0.058710 0.518689 -0.000010 0.000029 -0.000060 43.137959 -0.037510 -8.920902 29.952206 -0.025892 0.193035 30.002010 -0.012016 0.146983 0.000014 0.000110 -0.000011 46.416538 0.046076 -6.611875 32.658150 0.070409 -0.206829 32.672726 0.023163 -0.143818 -0.000027 -0.000415 0.000004 47.410858 0.148601 -6.220010 33.664680 0.086310 -0.246677 33.399807 0.034865 -0.183443 0.000194 -0.000007 0.000092 0.000000 0.000000 0.000000 0.000000 0.000000 0.000000 -92.067451 0.301318 3.603545 -68.523087 28.851845 -8.643568 -2.356602 -12.881485 44.424911 16.188461 -12.938382 -17.272440 -17.612663 1.911989 37.188049 -0.000022 0.000035 -42.865910 0.000042 -0.000020 -29.660601 -0.001828 -0.000017 -0.001000 -53.209911 -0.091642 -18.238689 -37.140110 -0.020794 -0.118952 -37.290466 0.002615 -0.110630 0.000037 0.000104 0.000016 -54.017601 -0.010072 -14.804794 -37.810879 -0.012335 -0.014674 -37.582779 0.004428 -0.006120 -0.001223 -0.000060 0.000203 -59.649910 0.041837 -7.651473 -42.246216 0.002378 -0.043987 -42.164009 -0.017486 -0.016139 -0.000890 0.000017 0.000009 -61.471542 0.220396 -1.273406 -43.521160 -0.018701 -0.057143 -43.384521 -0.041600 -0.022044 0.001030 0.000007 -0.000047 0.000000 0.000000 0.000000 0.000000 0.000000 0.000000 7.521153 3.796764 -0.623436 -0.104124 0.082637 24.319103 -8.586219 -10.849580 13.614478 0.437507 -1.144797 -29.355932 0.000000 0.000000 0.000000 0.000000 0.000000 0.000000 0.000000 0.000000 0.000000 7.298631 -3.915157 -3.150368 0.379452 0.687148 29.167553 -1.639633 1.475498 12.857682 0.082868 0.586611 -30.012085 0.000000 0.000000 0.000000 0.000000 0.000000 0.000000 0.000000 0.000000 0.000000 
0.156207 85.772469 2.347213 -1.721216 -1.126179 -7.389224 2.304076 -0.311569 5.406120 3.651648 -1.098091 5.755986 -1.832735 0.566262 3.396056 -0.986803 -0.241446 -0.094214 3.910727 3.349823 0.975426 -3.098721 2.080402 -10.909595 -0.874635 2.663056 -20.836126 0.000000 0.000000 0.000000 93.275528 0.085393 5.646172 63.920624 -30.135517 2.019549 1.497927 20.208363 34.168766 0.668032 10.055293 -13.017021 15.579321 -2.038913 37.872185 -0.000003 0.000054 -37.795570 0.000024 0.000031 -26.159916 0.000017 -0.000005 -0.000053 41.672569 -0.088748 -8.828199 28.935900 -0.121739 0.673486 28.941248 -0.099464 0.536276 -0.000006 0.000033 -0.000045 41.657635 -0.029618 -9.016707 28.876808 -0.043324 0.207626 28.909309 -0.024988 0.157216 0.000013 0.000117 -0.000027 44.934948 0.035329 -6.913837 31.545448 0.105187 -0.221910 31.571161 0.042929 -0.154384 -0.000033 -0.000645 0.000006 45.851143 0.104622 -6.585622 32.645859 0.185152 -0.281915 32.378128 0.110645 -0.201363 0.000036 -0.000004 0.000095 0.000000 0.000000 0.000000 0.000000 0.000000 0.000000 -91.911018 0.280888 3.744326 -68.395149 28.556658 -8.358830 -2.488368 -12.679655 43.334408 16.726152 -12.930976 -18.101547 -17.177134 1.927922 37.343414 -0.000020 0.000030 -41.834675 0.000003 -0.000014 -28.939032 -0.001821 -0.000013 -0.000825 -51.334686 -0.070917 -18.066658 -35.808132 -0.058035 -0.192267 -35.956993 -0.034494 -0.168070 0.000037 0.000223 0.000014 -52.145023 -0.001181 -14.891740 -36.497746 -0.028055 -0.043260 -36.287617 -0.005712 -0.026023 -0.001413 -0.000062 0.000177 -57.736099 0.031539 -7.922292 -40.907990 0.026510 -0.008345 -40.842884 -0.001947 0.010119 -0.000692 0.000022 0.000011 -59.619030 0.173255 -1.608297 -42.299385 0.053889 0.040806 -42.178036 0.010479 0.037415 0.000900 0.000014 -0.000061 0.000000 0.000000 0.000000 0.000000 0.000000 0.000000 7.679953 3.956680 -0.712440 -0.102005 0.083961 24.329348 -8.769192 -10.796793 13.457943 0.416796 -1.167539 -29.301960 0.000000 0.000000 0.000000 0.000000 0.000000 0.000000 0.000000 0.000000 0.000000 7.453902 -3.556009 -3.411103 0.392192 0.695315 29.495583 -1.771340 1.928373 12.861750 0.092185 0.612568 -30.139492 0.000000 0.000000 0.000000 0.000000 0.000000 0.000000 0.000000 0.000000 0.000000 
-0.054187 85.723236 2.321087 -1.739750 -1.432338 -7.362563 2.428361 -0.343344 5.399613 3.698208 -1.114099 5.881912 -1.808449 0.474296 3.296411 -1.029085 -0.285559 0.002275 4.030025 3.292852 1.109545 -3.128728 1.909522 -10.969785 -0.852955 2.687564 -21.048004 0.000000 0.000000 0.000000 93.250717 0.040771 5.976297 63.549908 -30.461843 2.613583 1.451924 20.212254 33.457424 0.051219 10.283879 -12.465652 15.162825 -2.047785 38.018677 -0.000008 0.000057 -36.823498 0.000024 0.000033 -25.474335 0.000016 -0.000006 -0.000051 39.883709 -0.080187 -8.517816 27.683092 -0.158739 0.704849 27.643169 -0.130332 0.558031 -0.000009 0.000030 -0.000042 39.914959 -0.026468 -8.924144 27.681856 -0.055573 0.221966 27.708099 -0.034804 0.167233 0.000011 0.000111 -0.000027 43.342354 0.030031 -7.062729 30.383749 0.129153 -0.233954 30.423555 0.056317 -0.161908 -0.000030 -0.000801 0.000010 44.297791 0.089134 -6.852588 31.635515 0.252277 -0.301635 31.360023 0.162137 -0.214552 -0.000096 -0.000005 0.000085 0.000000 0.000000 0.000000 0.000000 0.000000 0.000000 -91.728226 0.234502 3.998983 -68.314232 28.335032 -8.055879 -2.526541 -12.356272 42.597824 17.120193 -12.963048 -18.455153 -16.702093 1.947516 37.505993 -0.000024 0.000030 -40.711308 -0.000021 -0.000015 -28.152239 -0.001639 -0.000015 -0.000589 -49.116341 -0.063535 -17.829071 -34.241943 -0.091748 -0.267568 -34.392593 -0.067475 -0.227649 0.000036 0.000352 0.000015 -50.019604 0.002861 -14.941030 -34.987797 -0.041219 -0.072852 -34.794518 -0.014516 -0.045309 -0.001401 -0.000064 0.000153 -55.735786 0.026954 -8.174491 -39.480080 0.045103 0.029124 -39.421539 0.011147 0.037918 -0.000662 0.000020 0.000011 -57.809475 0.150188 -2.045083 -41.066635 0.115620 0.143087 -40.952965 0.056393 0.100377 0.000673 0.000011 -0.000061 0.000000 0.000000 0.000000 0.000000 0.000000 0.000000 7.886227 4.095498 -0.788207 -0.095904 0.101228 24.348669 -8.932097 -10.764757 13.355541 0.399678 -1.187627 -29.237009 0.000000 0.000000 0.000000 0.000000 0.000000 0.000000 0.000000 0.000000 0.000000 7.674581 -3.326654 -3.666322 0.399129 0.689096 30.115572 -1.886194 2.399295 12.774497 0.083985 0.636728 -30.259598 0.000000 0.000000 0.000000 0.000000 0.000000 0.000000 0.000000 0.000000 0.000000 
